<svg xmlns="http://www.w3.org/2000/svg" xmlns:svg="http://www.w3.org/2000/svg" id="svg999" width="297mm" height="210mm" version="1.1" viewBox="0 0 297 210"><metadata id="metadata996"/><g id="layer1" transform="translate(0,-87)"><g id="g1691" transform="translate(207.9146,104.19791)"><g id="g1653"><g id="g4950" transform="translate(-1.8357143,-211.24166)"><g id="g4914"><g id="g4879"><g id="g4845"><g id="g4812"><g id="g4780"><rect id="rect3699" width="58" height="96" x=".05" y="200.95" ry="4" style="fill:none;fill-opacity:1;stroke:#000;stroke-width:.1;stroke-miterlimit:4;stroke-dasharray:none;stroke-opacity:1"/><g id="g4636"><g id="g4619"><g id="g4603"><g id="g4588"><g id="g4562"><g id="g4555"><g id="g4549"><rect id="rect4514" width="14" height="14" x="3.05" y="279.95" ry=".3" style="fill:none;fill-opacity:1;stroke:#000;stroke-width:.1;stroke-miterlimit:4;stroke-dasharray:none;stroke-opacity:1"/><rect style="fill:none;fill-opacity:1;stroke:#000;stroke-width:.1;stroke-miterlimit:4;stroke-dasharray:none;stroke-opacity:1" id="rect4542" width="14" height="14" x="22.05" y="279.95" ry=".3"/><rect id="rect4544" width="14" height="14" x="41.05" y="279.95" ry=".3" style="fill:none;fill-opacity:1;stroke:#000;stroke-width:.1;stroke-miterlimit:4;stroke-dasharray:none;stroke-opacity:1"/></g></g></g><g id="g4574" transform="translate(4.8428774e-8,-19.000012)"><g id="g4572"><g id="g4570"><rect style="fill:none;fill-opacity:1;stroke:#000;stroke-width:.1;stroke-miterlimit:4;stroke-dasharray:none;stroke-opacity:1" id="rect4564" width="14" height="14" x="3.05" y="279.95" ry=".3"/><rect id="rect4566" width="14" height="14" x="22.05" y="279.95" ry=".3" style="fill:none;fill-opacity:1;stroke:#000;stroke-width:.1;stroke-miterlimit:4;stroke-dasharray:none;stroke-opacity:1"/><rect style="fill:none;fill-opacity:1;stroke:#000;stroke-width:.1;stroke-miterlimit:4;stroke-dasharray:none;stroke-opacity:1" id="rect4568" width="14" height="14" x="41.05" y="279.95" ry=".3"/></g></g></g></g></g></g></g><g id="g4644" transform="translate(4.8428774e-8,-38.000012)"><rect style="fill:none;fill-opacity:1;stroke:#000;stroke-width:.1;stroke-miterlimit:4;stroke-dasharray:none;stroke-opacity:1" id="rect4638" width="14" height="14" x="3.05" y="279.95" ry=".3"/><rect id="rect4640" width="14" height="14" x="22.05" y="279.95" ry=".3" style="fill:none;fill-opacity:1;stroke:#000;stroke-width:.1;stroke-miterlimit:4;stroke-dasharray:none;stroke-opacity:1"/><rect style="fill:none;fill-opacity:1;stroke:#000;stroke-width:.1;stroke-miterlimit:4;stroke-dasharray:none;stroke-opacity:1" id="rect4642" width="14" height="14" x="41.05" y="279.95" ry=".3"/></g><g id="g4656" transform="translate(9.6857548e-8,-57.000024)"><rect id="rect4650" width="14" height="14" x="3.05" y="279.95" ry=".3" style="fill:none;fill-opacity:1;stroke:#000;stroke-width:.1;stroke-miterlimit:4;stroke-dasharray:none;stroke-opacity:1"/><rect style="fill:none;fill-opacity:1;stroke:#000;stroke-width:.1;stroke-miterlimit:4;stroke-dasharray:none;stroke-opacity:1" id="rect4652" width="14" height="14" x="22.05" y="279.95" ry=".3"/><rect id="rect4654" width="14" height="14" x="41.05" y="279.95" ry=".3" style="fill:none;fill-opacity:1;stroke:#000;stroke-width:.1;stroke-miterlimit:4;stroke-dasharray:none;stroke-opacity:1"/></g><g id="g4748" transform="translate(4.8428774e-8,-76.000012)"><rect style="fill:none;fill-opacity:1;stroke:#000;stroke-width:.1;stroke-miterlimit:4;stroke-dasharray:none;stroke-opacity:1" id="rect4742" width="14" height="14" x="3.05" y="279.95" ry=".3"/><rect id="rect4744" width="14" height="14" x="22.05" y="279.95" ry=".3" style="fill:none;fill-opacity:1;stroke:#000;stroke-width:.1;stroke-miterlimit:4;stroke-dasharray:none;stroke-opacity:1"/><rect style="fill:none;fill-opacity:1;stroke:#000;stroke-width:.1;stroke-miterlimit:4;stroke-dasharray:none;stroke-opacity:1" id="rect4746" width="14" height="14" x="41.05" y="279.95" ry=".3"/></g></g></g></g></g></g></g></g></g><g id="g1765" transform="translate(148.85626,104.19791)"><g id="g1763"><g id="g1761" transform="translate(-1.8357143,-211.24166)"><g id="g1759"><g id="g1757"><g id="g1755"><g id="g1753"><g id="g1751"><rect style="fill:none;fill-opacity:1;stroke:#000;stroke-width:.1;stroke-miterlimit:4;stroke-dasharray:none;stroke-opacity:1" id="rect1693" width="58" height="96" x=".05" y="200.95" ry="4"/><g id="g1725"><g id="g1723"><g id="g1721"><g id="g1719"><g id="g1705"><g id="g1703"><g id="g1701"><rect style="fill:none;fill-opacity:1;stroke:#000;stroke-width:.1;stroke-miterlimit:4;stroke-dasharray:none;stroke-opacity:1" id="rect1695" width="14" height="14" x="3.05" y="279.95" ry=".3"/><rect id="rect1697" width="14" height="14" x="22.05" y="279.95" ry=".3" style="fill:none;fill-opacity:1;stroke:#000;stroke-width:.1;stroke-miterlimit:4;stroke-dasharray:none;stroke-opacity:1"/><rect style="fill:none;fill-opacity:1;stroke:#000;stroke-width:.1;stroke-miterlimit:4;stroke-dasharray:none;stroke-opacity:1" id="rect1699" width="14" height="14" x="41.05" y="279.95" ry=".3"/></g></g></g><g id="g1717" transform="translate(4.8428774e-8,-19.000012)"><g id="g1715"><g id="g1713"><rect id="rect1707" width="14" height="14" x="3.05" y="279.95" ry=".3" style="fill:none;fill-opacity:1;stroke:#000;stroke-width:.1;stroke-miterlimit:4;stroke-dasharray:none;stroke-opacity:1"/><rect style="fill:none;fill-opacity:1;stroke:#000;stroke-width:.1;stroke-miterlimit:4;stroke-dasharray:none;stroke-opacity:1" id="rect1709" width="14" height="14" x="22.05" y="279.95" ry=".3"/><rect id="rect1711" width="14" height="14" x="41.05" y="279.95" ry=".3" style="fill:none;fill-opacity:1;stroke:#000;stroke-width:.1;stroke-miterlimit:4;stroke-dasharray:none;stroke-opacity:1"/></g></g></g></g></g></g></g><g id="g1733" transform="translate(4.8428774e-8,-38.000012)"><rect id="rect1727" width="14" height="14" x="3.05" y="279.95" ry=".3" style="fill:none;fill-opacity:1;stroke:#000;stroke-width:.1;stroke-miterlimit:4;stroke-dasharray:none;stroke-opacity:1"/><rect style="fill:none;fill-opacity:1;stroke:#000;stroke-width:.1;stroke-miterlimit:4;stroke-dasharray:none;stroke-opacity:1" id="rect1729" width="14" height="14" x="22.05" y="279.95" ry=".3"/><rect id="rect1731" width="14" height="14" x="41.05" y="279.95" ry=".3" style="fill:none;fill-opacity:1;stroke:#000;stroke-width:.1;stroke-miterlimit:4;stroke-dasharray:none;stroke-opacity:1"/></g><g id="g1741" transform="translate(9.6857548e-8,-57.000024)"><rect style="fill:none;fill-opacity:1;stroke:#000;stroke-width:.1;stroke-miterlimit:4;stroke-dasharray:none;stroke-opacity:1" id="rect1735" width="14" height="14" x="3.05" y="279.95" ry=".3"/><rect id="rect1737" width="14" height="14" x="22.05" y="279.95" ry=".3" style="fill:none;fill-opacity:1;stroke:#000;stroke-width:.1;stroke-miterlimit:4;stroke-dasharray:none;stroke-opacity:1"/><rect style="fill:none;fill-opacity:1;stroke:#000;stroke-width:.1;stroke-miterlimit:4;stroke-dasharray:none;stroke-opacity:1" id="rect1739" width="14" height="14" x="41.05" y="279.95" ry=".3"/></g><g id="g1749" transform="translate(4.8428774e-8,-76.000012)"><rect id="rect1743" width="14" height="14" x="3.05" y="279.95" ry=".3" style="fill:none;fill-opacity:1;stroke:#000;stroke-width:.1;stroke-miterlimit:4;stroke-dasharray:none;stroke-opacity:1"/><rect style="fill:none;fill-opacity:1;stroke:#000;stroke-width:.1;stroke-miterlimit:4;stroke-dasharray:none;stroke-opacity:1" id="rect1745" width="14" height="14" x="22.05" y="279.95" ry=".3"/><rect id="rect1747" width="14" height="14" x="41.05" y="279.95" ry=".3" style="fill:none;fill-opacity:1;stroke:#000;stroke-width:.1;stroke-miterlimit:4;stroke-dasharray:none;stroke-opacity:1"/></g></g></g></g></g></g></g></g></g><g id="g1839" transform="translate(89.797914,104.19791)"><g id="g1837"><g id="g1835" transform="translate(-1.8357143,-211.24166)"><g id="g1833"><g id="g1831"><g id="g1829"><g id="g1827"><g id="g1825"><rect id="rect1767" width="58" height="96" x=".05" y="200.95" ry="4" style="fill:none;fill-opacity:1;stroke:#000;stroke-width:.1;stroke-miterlimit:4;stroke-dasharray:none;stroke-opacity:1"/><g id="g1799"><g id="g1797"><g id="g1795"><g id="g1793"><g id="g1779"><g id="g1777"><g id="g1775"><rect id="rect1769" width="14" height="14" x="3.05" y="279.95" ry=".3" style="fill:none;fill-opacity:1;stroke:#000;stroke-width:.1;stroke-miterlimit:4;stroke-dasharray:none;stroke-opacity:1"/><rect style="fill:none;fill-opacity:1;stroke:#000;stroke-width:.1;stroke-miterlimit:4;stroke-dasharray:none;stroke-opacity:1" id="rect1771" width="14" height="14" x="22.05" y="279.95" ry=".3"/><rect id="rect1773" width="14" height="14" x="41.05" y="279.95" ry=".3" style="fill:none;fill-opacity:1;stroke:#000;stroke-width:.1;stroke-miterlimit:4;stroke-dasharray:none;stroke-opacity:1"/></g></g></g><g id="g1791" transform="translate(4.8428774e-8,-19.000012)"><g id="g1789"><g id="g1787"><rect style="fill:none;fill-opacity:1;stroke:#000;stroke-width:.1;stroke-miterlimit:4;stroke-dasharray:none;stroke-opacity:1" id="rect1781" width="14" height="14" x="3.05" y="279.95" ry=".3"/><rect id="rect1783" width="14" height="14" x="22.05" y="279.95" ry=".3" style="fill:none;fill-opacity:1;stroke:#000;stroke-width:.1;stroke-miterlimit:4;stroke-dasharray:none;stroke-opacity:1"/><rect style="fill:none;fill-opacity:1;stroke:#000;stroke-width:.1;stroke-miterlimit:4;stroke-dasharray:none;stroke-opacity:1" id="rect1785" width="14" height="14" x="41.05" y="279.95" ry=".3"/></g></g></g></g></g></g></g><g id="g1807" transform="translate(4.8428774e-8,-38.000012)"><rect style="fill:none;fill-opacity:1;stroke:#000;stroke-width:.1;stroke-miterlimit:4;stroke-dasharray:none;stroke-opacity:1" id="rect1801" width="14" height="14" x="3.05" y="279.95" ry=".3"/><rect id="rect1803" width="14" height="14" x="22.05" y="279.95" ry=".3" style="fill:none;fill-opacity:1;stroke:#000;stroke-width:.1;stroke-miterlimit:4;stroke-dasharray:none;stroke-opacity:1"/><rect style="fill:none;fill-opacity:1;stroke:#000;stroke-width:.1;stroke-miterlimit:4;stroke-dasharray:none;stroke-opacity:1" id="rect1805" width="14" height="14" x="41.05" y="279.95" ry=".3"/></g><g id="g1815" transform="translate(9.6857548e-8,-57.000024)"><rect id="rect1809" width="14" height="14" x="3.05" y="279.95" ry=".3" style="fill:none;fill-opacity:1;stroke:#000;stroke-width:.1;stroke-miterlimit:4;stroke-dasharray:none;stroke-opacity:1"/><rect style="fill:none;fill-opacity:1;stroke:#000;stroke-width:.1;stroke-miterlimit:4;stroke-dasharray:none;stroke-opacity:1" id="rect1811" width="14" height="14" x="22.05" y="279.95" ry=".3"/><rect id="rect1813" width="14" height="14" x="41.05" y="279.95" ry=".3" style="fill:none;fill-opacity:1;stroke:#000;stroke-width:.1;stroke-miterlimit:4;stroke-dasharray:none;stroke-opacity:1"/></g><g id="g1823" transform="translate(4.8428774e-8,-76.000012)"><rect style="fill:none;fill-opacity:1;stroke:#000;stroke-width:.1;stroke-miterlimit:4;stroke-dasharray:none;stroke-opacity:1" id="rect1817" width="14" height="14" x="3.05" y="279.95" ry=".3"/><rect id="rect1819" width="14" height="14" x="22.05" y="279.95" ry=".3" style="fill:none;fill-opacity:1;stroke:#000;stroke-width:.1;stroke-miterlimit:4;stroke-dasharray:none;stroke-opacity:1"/><rect style="fill:none;fill-opacity:1;stroke:#000;stroke-width:.1;stroke-miterlimit:4;stroke-dasharray:none;stroke-opacity:1" id="rect1821" width="14" height="14" x="41.05" y="279.95" ry=".3"/></g></g></g></g></g></g></g></g></g><g id="g1913" transform="translate(30.739575,104.19791)"><g id="g1911"><g id="g1909" transform="translate(-1.8357143,-211.24166)"><g id="g1907"><g id="g1905"><g id="g1903"><g id="g1901"><g id="g1899"><rect id="rect1841" width="58" height="96" x=".05" y="200.95" ry="4" style="fill:none;fill-opacity:1;stroke:#000;stroke-width:.1;stroke-miterlimit:4;stroke-dasharray:none;stroke-opacity:1"/><g id="g1873"><g id="g1871"><g id="g1869"><g id="g1867"><g id="g1853"><g id="g1851"><g id="g1849"><rect id="rect1843" width="14" height="14" x="3.05" y="279.95" ry=".3" style="fill:none;fill-opacity:1;stroke:#000;stroke-width:.1;stroke-miterlimit:4;stroke-dasharray:none;stroke-opacity:1"/><rect style="fill:none;fill-opacity:1;stroke:#000;stroke-width:.1;stroke-miterlimit:4;stroke-dasharray:none;stroke-opacity:1" id="rect1845" width="14" height="14" x="22.05" y="279.95" ry=".3"/><rect id="rect1847" width="14" height="14" x="41.05" y="279.95" ry=".3" style="fill:none;fill-opacity:1;stroke:#000;stroke-width:.1;stroke-miterlimit:4;stroke-dasharray:none;stroke-opacity:1"/></g></g></g><g id="g1865" transform="translate(4.8428774e-8,-19.000012)"><g id="g1863"><g id="g1861"><rect style="fill:none;fill-opacity:1;stroke:#000;stroke-width:.1;stroke-miterlimit:4;stroke-dasharray:none;stroke-opacity:1" id="rect1855" width="14" height="14" x="3.05" y="279.95" ry=".3"/><rect id="rect1857" width="14" height="14" x="22.05" y="279.95" ry=".3" style="fill:none;fill-opacity:1;stroke:#000;stroke-width:.1;stroke-miterlimit:4;stroke-dasharray:none;stroke-opacity:1"/><rect style="fill:none;fill-opacity:1;stroke:#000;stroke-width:.1;stroke-miterlimit:4;stroke-dasharray:none;stroke-opacity:1" id="rect1859" width="14" height="14" x="41.05" y="279.95" ry=".3"/></g></g></g></g></g></g></g><g id="g1881" transform="translate(4.8428774e-8,-38.000012)"><rect style="fill:none;fill-opacity:1;stroke:#000;stroke-width:.1;stroke-miterlimit:4;stroke-dasharray:none;stroke-opacity:1" id="rect1875" width="14" height="14" x="3.05" y="279.95" ry=".3"/><rect id="rect1877" width="14" height="14" x="22.05" y="279.95" ry=".3" style="fill:none;fill-opacity:1;stroke:#000;stroke-width:.1;stroke-miterlimit:4;stroke-dasharray:none;stroke-opacity:1"/><rect style="fill:none;fill-opacity:1;stroke:#000;stroke-width:.1;stroke-miterlimit:4;stroke-dasharray:none;stroke-opacity:1" id="rect1879" width="14" height="14" x="41.05" y="279.95" ry=".3"/></g><g id="g1889" transform="translate(9.6857548e-8,-57.000024)"><rect id="rect1883" width="14" height="14" x="3.05" y="279.95" ry=".3" style="fill:none;fill-opacity:1;stroke:#000;stroke-width:.1;stroke-miterlimit:4;stroke-dasharray:none;stroke-opacity:1"/><rect style="fill:none;fill-opacity:1;stroke:#000;stroke-width:.1;stroke-miterlimit:4;stroke-dasharray:none;stroke-opacity:1" id="rect1885" width="14" height="14" x="22.05" y="279.95" ry=".3"/><rect id="rect1887" width="14" height="14" x="41.05" y="279.95" ry=".3" style="fill:none;fill-opacity:1;stroke:#000;stroke-width:.1;stroke-miterlimit:4;stroke-dasharray:none;stroke-opacity:1"/></g><g id="g1897" transform="translate(4.8428774e-8,-76.000012)"><rect style="fill:none;fill-opacity:1;stroke:#000;stroke-width:.1;stroke-miterlimit:4;stroke-dasharray:none;stroke-opacity:1" id="rect1891" width="14" height="14" x="3.05" y="279.95" ry=".3"/><rect id="rect1893" width="14" height="14" x="22.05" y="279.95" ry=".3" style="fill:none;fill-opacity:1;stroke:#000;stroke-width:.1;stroke-miterlimit:4;stroke-dasharray:none;stroke-opacity:1"/><rect style="fill:none;fill-opacity:1;stroke:#000;stroke-width:.1;stroke-miterlimit:4;stroke-dasharray:none;stroke-opacity:1" id="rect1895" width="14" height="14" x="41.05" y="279.95" ry=".3"/></g></g></g></g></g></g></g></g></g><g id="g2285" transform="translate(207.9146,200.7271)"><g id="g2283"><g id="g2281" transform="translate(-1.8357143,-211.24166)"><g id="g2279"><g id="g2277"><g id="g2275"><g id="g2273"><g id="g2271"><rect style="fill:none;fill-opacity:1;stroke:#000;stroke-width:.1;stroke-miterlimit:4;stroke-dasharray:none;stroke-opacity:1" id="rect2213" width="58" height="96" x=".05" y="200.95" ry="4"/><g id="g2245"><g id="g2243"><g id="g2241"><g id="g2239"><g id="g2225"><g id="g2223"><g id="g2221"><rect style="fill:none;fill-opacity:1;stroke:#000;stroke-width:.1;stroke-miterlimit:4;stroke-dasharray:none;stroke-opacity:1" id="rect2215" width="14" height="14" x="3.05" y="279.95" ry=".3"/><rect id="rect2217" width="14" height="14" x="22.05" y="279.95" ry=".3" style="fill:none;fill-opacity:1;stroke:#000;stroke-width:.1;stroke-miterlimit:4;stroke-dasharray:none;stroke-opacity:1"/><rect style="fill:none;fill-opacity:1;stroke:#000;stroke-width:.1;stroke-miterlimit:4;stroke-dasharray:none;stroke-opacity:1" id="rect2219" width="14" height="14" x="41.05" y="279.95" ry=".3"/></g></g></g><g id="g2237" transform="translate(4.8428774e-8,-19.000012)"><g id="g2235"><g id="g2233"><rect id="rect2227" width="14" height="14" x="3.05" y="279.95" ry=".3" style="fill:none;fill-opacity:1;stroke:#000;stroke-width:.1;stroke-miterlimit:4;stroke-dasharray:none;stroke-opacity:1"/><rect style="fill:none;fill-opacity:1;stroke:#000;stroke-width:.1;stroke-miterlimit:4;stroke-dasharray:none;stroke-opacity:1" id="rect2229" width="14" height="14" x="22.05" y="279.95" ry=".3"/><rect id="rect2231" width="14" height="14" x="41.05" y="279.95" ry=".3" style="fill:none;fill-opacity:1;stroke:#000;stroke-width:.1;stroke-miterlimit:4;stroke-dasharray:none;stroke-opacity:1"/></g></g></g></g></g></g></g><g id="g2253" transform="translate(4.8428774e-8,-38.000012)"><rect id="rect2247" width="14" height="14" x="3.05" y="279.95" ry=".3" style="fill:none;fill-opacity:1;stroke:#000;stroke-width:.1;stroke-miterlimit:4;stroke-dasharray:none;stroke-opacity:1"/><rect style="fill:none;fill-opacity:1;stroke:#000;stroke-width:.1;stroke-miterlimit:4;stroke-dasharray:none;stroke-opacity:1" id="rect2249" width="14" height="14" x="22.05" y="279.95" ry=".3"/><rect id="rect2251" width="14" height="14" x="41.05" y="279.95" ry=".3" style="fill:none;fill-opacity:1;stroke:#000;stroke-width:.1;stroke-miterlimit:4;stroke-dasharray:none;stroke-opacity:1"/></g><g id="g2261" transform="translate(9.6857548e-8,-57.000024)"><rect style="fill:none;fill-opacity:1;stroke:#000;stroke-width:.1;stroke-miterlimit:4;stroke-dasharray:none;stroke-opacity:1" id="rect2255" width="14" height="14" x="3.05" y="279.95" ry=".3"/><rect id="rect2257" width="14" height="14" x="22.05" y="279.95" ry=".3" style="fill:none;fill-opacity:1;stroke:#000;stroke-width:.1;stroke-miterlimit:4;stroke-dasharray:none;stroke-opacity:1"/><rect style="fill:none;fill-opacity:1;stroke:#000;stroke-width:.1;stroke-miterlimit:4;stroke-dasharray:none;stroke-opacity:1" id="rect2259" width="14" height="14" x="41.05" y="279.95" ry=".3"/></g><g id="g2269" transform="translate(4.8428774e-8,-76.000012)"><rect id="rect2263" width="14" height="14" x="3.05" y="279.95" ry=".3" style="fill:none;fill-opacity:1;stroke:#000;stroke-width:.1;stroke-miterlimit:4;stroke-dasharray:none;stroke-opacity:1"/><rect style="fill:none;fill-opacity:1;stroke:#000;stroke-width:.1;stroke-miterlimit:4;stroke-dasharray:none;stroke-opacity:1" id="rect2265" width="14" height="14" x="22.05" y="279.95" ry=".3"/><rect id="rect2267" width="14" height="14" x="41.05" y="279.95" ry=".3" style="fill:none;fill-opacity:1;stroke:#000;stroke-width:.1;stroke-miterlimit:4;stroke-dasharray:none;stroke-opacity:1"/></g></g></g></g></g></g></g></g></g><g id="g2359" transform="translate(148.85626,200.7271)"><g id="g2357"><g id="g2355" transform="translate(-1.8357143,-211.24166)"><g id="g2353"><g id="g2351"><g id="g2349"><g id="g2347"><g id="g2345"><rect id="rect2287" width="58" height="96" x=".05" y="200.95" ry="4" style="fill:none;fill-opacity:1;stroke:#000;stroke-width:.1;stroke-miterlimit:4;stroke-dasharray:none;stroke-opacity:1"/><g id="g2319"><g id="g2317"><g id="g2315"><g id="g2313"><g id="g2299"><g id="g2297"><g id="g2295"><rect id="rect2289" width="14" height="14" x="3.05" y="279.95" ry=".3" style="fill:none;fill-opacity:1;stroke:#000;stroke-width:.1;stroke-miterlimit:4;stroke-dasharray:none;stroke-opacity:1"/><rect style="fill:none;fill-opacity:1;stroke:#000;stroke-width:.1;stroke-miterlimit:4;stroke-dasharray:none;stroke-opacity:1" id="rect2291" width="14" height="14" x="22.05" y="279.95" ry=".3"/><rect id="rect2293" width="14" height="14" x="41.05" y="279.95" ry=".3" style="fill:none;fill-opacity:1;stroke:#000;stroke-width:.1;stroke-miterlimit:4;stroke-dasharray:none;stroke-opacity:1"/></g></g></g><g id="g2311" transform="translate(4.8428774e-8,-19.000012)"><g id="g2309"><g id="g2307"><rect style="fill:none;fill-opacity:1;stroke:#000;stroke-width:.1;stroke-miterlimit:4;stroke-dasharray:none;stroke-opacity:1" id="rect2301" width="14" height="14" x="3.05" y="279.95" ry=".3"/><rect id="rect2303" width="14" height="14" x="22.05" y="279.95" ry=".3" style="fill:none;fill-opacity:1;stroke:#000;stroke-width:.1;stroke-miterlimit:4;stroke-dasharray:none;stroke-opacity:1"/><rect style="fill:none;fill-opacity:1;stroke:#000;stroke-width:.1;stroke-miterlimit:4;stroke-dasharray:none;stroke-opacity:1" id="rect2305" width="14" height="14" x="41.05" y="279.95" ry=".3"/></g></g></g></g></g></g></g><g id="g2327" transform="translate(4.8428774e-8,-38.000012)"><rect style="fill:none;fill-opacity:1;stroke:#000;stroke-width:.1;stroke-miterlimit:4;stroke-dasharray:none;stroke-opacity:1" id="rect2321" width="14" height="14" x="3.05" y="279.95" ry=".3"/><rect id="rect2323" width="14" height="14" x="22.05" y="279.95" ry=".3" style="fill:none;fill-opacity:1;stroke:#000;stroke-width:.1;stroke-miterlimit:4;stroke-dasharray:none;stroke-opacity:1"/><rect style="fill:none;fill-opacity:1;stroke:#000;stroke-width:.1;stroke-miterlimit:4;stroke-dasharray:none;stroke-opacity:1" id="rect2325" width="14" height="14" x="41.05" y="279.95" ry=".3"/></g><g id="g2335" transform="translate(9.6857548e-8,-57.000024)"><rect id="rect2329" width="14" height="14" x="3.05" y="279.95" ry=".3" style="fill:none;fill-opacity:1;stroke:#000;stroke-width:.1;stroke-miterlimit:4;stroke-dasharray:none;stroke-opacity:1"/><rect style="fill:none;fill-opacity:1;stroke:#000;stroke-width:.1;stroke-miterlimit:4;stroke-dasharray:none;stroke-opacity:1" id="rect2331" width="14" height="14" x="22.05" y="279.95" ry=".3"/><rect id="rect2333" width="14" height="14" x="41.05" y="279.95" ry=".3" style="fill:none;fill-opacity:1;stroke:#000;stroke-width:.1;stroke-miterlimit:4;stroke-dasharray:none;stroke-opacity:1"/></g><g id="g2343" transform="translate(4.8428774e-8,-76.000012)"><rect style="fill:none;fill-opacity:1;stroke:#000;stroke-width:.1;stroke-miterlimit:4;stroke-dasharray:none;stroke-opacity:1" id="rect2337" width="14" height="14" x="3.05" y="279.95" ry=".3"/><rect id="rect2339" width="14" height="14" x="22.05" y="279.95" ry=".3" style="fill:none;fill-opacity:1;stroke:#000;stroke-width:.1;stroke-miterlimit:4;stroke-dasharray:none;stroke-opacity:1"/><rect style="fill:none;fill-opacity:1;stroke:#000;stroke-width:.1;stroke-miterlimit:4;stroke-dasharray:none;stroke-opacity:1" id="rect2341" width="14" height="14" x="41.05" y="279.95" ry=".3"/></g></g></g></g></g></g></g></g></g><g id="g2433" transform="translate(89.797914,200.7271)"><g id="g2431"><g id="g2429" transform="translate(-1.8357143,-211.24166)"><g id="g2427"><g id="g2425"><g id="g2423"><g id="g2421"><g id="g2419"><rect style="fill:none;fill-opacity:1;stroke:#000;stroke-width:.1;stroke-miterlimit:4;stroke-dasharray:none;stroke-opacity:1" id="rect2361" width="58" height="96" x=".05" y="200.95" ry="4"/><g id="g2393"><g id="g2391"><g id="g2389"><g id="g2387"><g id="g2373"><g id="g2371"><g id="g2369"><rect style="fill:none;fill-opacity:1;stroke:#000;stroke-width:.1;stroke-miterlimit:4;stroke-dasharray:none;stroke-opacity:1" id="rect2363" width="14" height="14" x="3.05" y="279.95" ry=".3"/><rect id="rect2365" width="14" height="14" x="22.05" y="279.95" ry=".3" style="fill:none;fill-opacity:1;stroke:#000;stroke-width:.1;stroke-miterlimit:4;stroke-dasharray:none;stroke-opacity:1"/><rect style="fill:none;fill-opacity:1;stroke:#000;stroke-width:.1;stroke-miterlimit:4;stroke-dasharray:none;stroke-opacity:1" id="rect2367" width="14" height="14" x="41.05" y="279.95" ry=".3"/></g></g></g><g id="g2385" transform="translate(4.8428774e-8,-19.000012)"><g id="g2383"><g id="g2381"><rect id="rect2375" width="14" height="14" x="3.05" y="279.95" ry=".3" style="fill:none;fill-opacity:1;stroke:#000;stroke-width:.1;stroke-miterlimit:4;stroke-dasharray:none;stroke-opacity:1"/><rect style="fill:none;fill-opacity:1;stroke:#000;stroke-width:.1;stroke-miterlimit:4;stroke-dasharray:none;stroke-opacity:1" id="rect2377" width="14" height="14" x="22.05" y="279.95" ry=".3"/><rect id="rect2379" width="14" height="14" x="41.05" y="279.95" ry=".3" style="fill:none;fill-opacity:1;stroke:#000;stroke-width:.1;stroke-miterlimit:4;stroke-dasharray:none;stroke-opacity:1"/></g></g></g></g></g></g></g><g id="g2401" transform="translate(4.8428774e-8,-38.000012)"><rect id="rect2395" width="14" height="14" x="3.05" y="279.95" ry=".3" style="fill:none;fill-opacity:1;stroke:#000;stroke-width:.1;stroke-miterlimit:4;stroke-dasharray:none;stroke-opacity:1"/><rect style="fill:none;fill-opacity:1;stroke:#000;stroke-width:.1;stroke-miterlimit:4;stroke-dasharray:none;stroke-opacity:1" id="rect2397" width="14" height="14" x="22.05" y="279.95" ry=".3"/><rect id="rect2399" width="14" height="14" x="41.05" y="279.95" ry=".3" style="fill:none;fill-opacity:1;stroke:#000;stroke-width:.1;stroke-miterlimit:4;stroke-dasharray:none;stroke-opacity:1"/></g><g id="g2409" transform="translate(9.6857548e-8,-57.000024)"><rect style="fill:none;fill-opacity:1;stroke:#000;stroke-width:.1;stroke-miterlimit:4;stroke-dasharray:none;stroke-opacity:1" id="rect2403" width="14" height="14" x="3.05" y="279.95" ry=".3"/><rect id="rect2405" width="14" height="14" x="22.05" y="279.95" ry=".3" style="fill:none;fill-opacity:1;stroke:#000;stroke-width:.1;stroke-miterlimit:4;stroke-dasharray:none;stroke-opacity:1"/><rect style="fill:none;fill-opacity:1;stroke:#000;stroke-width:.1;stroke-miterlimit:4;stroke-dasharray:none;stroke-opacity:1" id="rect2407" width="14" height="14" x="41.05" y="279.95" ry=".3"/></g><g id="g2417" transform="translate(4.8428774e-8,-76.000012)"><rect id="rect2411" width="14" height="14" x="3.05" y="279.95" ry=".3" style="fill:none;fill-opacity:1;stroke:#000;stroke-width:.1;stroke-miterlimit:4;stroke-dasharray:none;stroke-opacity:1"/><rect style="fill:none;fill-opacity:1;stroke:#000;stroke-width:.1;stroke-miterlimit:4;stroke-dasharray:none;stroke-opacity:1" id="rect2413" width="14" height="14" x="22.05" y="279.95" ry=".3"/><rect id="rect2415" width="14" height="14" x="41.05" y="279.95" ry=".3" style="fill:none;fill-opacity:1;stroke:#000;stroke-width:.1;stroke-miterlimit:4;stroke-dasharray:none;stroke-opacity:1"/></g></g></g></g></g></g></g></g></g><g id="g2507" transform="translate(30.739575,200.7271)"><g id="g2505"><g id="g2503" transform="translate(-1.8357143,-211.24166)"><g id="g2501"><g id="g2499"><g id="g2497"><g id="g2495"><g id="g2493"><rect style="fill:none;fill-opacity:1;stroke:#000;stroke-width:.1;stroke-miterlimit:4;stroke-dasharray:none;stroke-opacity:1" id="rect2435" width="58" height="96" x=".05" y="200.95" ry="4"/><g id="g2467"><g id="g2465"><g id="g2463"><g id="g2461"><g id="g2447"><g id="g2445"><g id="g2443"><rect style="fill:none;fill-opacity:1;stroke:#000;stroke-width:.1;stroke-miterlimit:4;stroke-dasharray:none;stroke-opacity:1" id="rect2437" width="14" height="14" x="3.05" y="279.95" ry=".3"/><rect id="rect2439" width="14" height="14" x="22.05" y="279.95" ry=".3" style="fill:none;fill-opacity:1;stroke:#000;stroke-width:.1;stroke-miterlimit:4;stroke-dasharray:none;stroke-opacity:1"/><rect style="fill:none;fill-opacity:1;stroke:#000;stroke-width:.1;stroke-miterlimit:4;stroke-dasharray:none;stroke-opacity:1" id="rect2441" width="14" height="14" x="41.05" y="279.95" ry=".3"/></g></g></g><g id="g2459" transform="translate(4.8428774e-8,-19.000012)"><g id="g2457"><g id="g2455"><rect id="rect2449" width="14" height="14" x="3.05" y="279.95" ry=".3" style="fill:none;fill-opacity:1;stroke:#000;stroke-width:.1;stroke-miterlimit:4;stroke-dasharray:none;stroke-opacity:1"/><rect style="fill:none;fill-opacity:1;stroke:#000;stroke-width:.1;stroke-miterlimit:4;stroke-dasharray:none;stroke-opacity:1" id="rect2451" width="14" height="14" x="22.05" y="279.95" ry=".3"/><rect id="rect2453" width="14" height="14" x="41.05" y="279.95" ry=".3" style="fill:none;fill-opacity:1;stroke:#000;stroke-width:.1;stroke-miterlimit:4;stroke-dasharray:none;stroke-opacity:1"/></g></g></g></g></g></g></g><g id="g2475" transform="translate(4.8428774e-8,-38.000012)"><rect id="rect2469" width="14" height="14" x="3.05" y="279.95" ry=".3" style="fill:none;fill-opacity:1;stroke:#000;stroke-width:.1;stroke-miterlimit:4;stroke-dasharray:none;stroke-opacity:1"/><rect style="fill:none;fill-opacity:1;stroke:#000;stroke-width:.1;stroke-miterlimit:4;stroke-dasharray:none;stroke-opacity:1" id="rect2471" width="14" height="14" x="22.05" y="279.95" ry=".3"/><rect id="rect2473" width="14" height="14" x="41.05" y="279.95" ry=".3" style="fill:none;fill-opacity:1;stroke:#000;stroke-width:.1;stroke-miterlimit:4;stroke-dasharray:none;stroke-opacity:1"/></g><g id="g2483" transform="translate(9.6857548e-8,-57.000024)"><rect style="fill:none;fill-opacity:1;stroke:#000;stroke-width:.1;stroke-miterlimit:4;stroke-dasharray:none;stroke-opacity:1" id="rect2477" width="14" height="14" x="3.05" y="279.95" ry=".3"/><rect id="rect2479" width="14" height="14" x="22.05" y="279.95" ry=".3" style="fill:none;fill-opacity:1;stroke:#000;stroke-width:.1;stroke-miterlimit:4;stroke-dasharray:none;stroke-opacity:1"/><rect style="fill:none;fill-opacity:1;stroke:#000;stroke-width:.1;stroke-miterlimit:4;stroke-dasharray:none;stroke-opacity:1" id="rect2481" width="14" height="14" x="41.05" y="279.95" ry=".3"/></g><g id="g2491" transform="translate(4.8428774e-8,-76.000012)"><rect id="rect2485" width="14" height="14" x="3.05" y="279.95" ry=".3" style="fill:none;fill-opacity:1;stroke:#000;stroke-width:.1;stroke-miterlimit:4;stroke-dasharray:none;stroke-opacity:1"/><rect style="fill:none;fill-opacity:1;stroke:#000;stroke-width:.1;stroke-miterlimit:4;stroke-dasharray:none;stroke-opacity:1" id="rect2487" width="14" height="14" x="22.05" y="279.95" ry=".3"/><rect id="rect2489" width="14" height="14" x="41.05" y="279.95" ry=".3" style="fill:none;fill-opacity:1;stroke:#000;stroke-width:.1;stroke-miterlimit:4;stroke-dasharray:none;stroke-opacity:1"/></g></g></g></g></g></g></g></g></g></g></svg>