<svg xmlns="http://www.w3.org/2000/svg" xmlns:svg="http://www.w3.org/2000/svg" id="svg8" width="210mm" height="297mm" version="1.1" viewBox="0 0 210 297"><metadata id="metadata5"/><g id="layer2" style="display:inline"><path id="path1396" d="m 92.175797,63.495618 c 1.49694,0 2.74603,-1.73796 2.74603,-3.24599 l -3e-5,-10.845066 c 0,-0.30201 -0.40703,-0.49762 -0.69855,-0.66592 -0.27824,-0.16065 -0.35974,-0.56151 -0.35974,-0.86039 v -14.47902 c 0,-0.25298 0.1291,-0.56629 0.4019,-0.72378 0.27419,-0.1583 0.67236,-0.2679 0.67236,-0.51425 l -0.0159,-13.07445 c 0,-2.24871 -1.75227,-4 -4,-4 h -11.10709 c -1.00322,0 -1.692,0.68159 -1.692,1.692 v 5.49499 c 0,0.49757 -0.35224,0.85451 -0.855,0.85451 h -8.698 c -0.49824,0 -0.854,-0.34904 -0.854,-0.8539 v -5.4956 c 0,-1.00395 -0.69483,-1.692 -1.692,-1.692 H 8.921871 c -2.2519,0 -4,1.7483 -4,4 v 87.999998 c 0,2.25008 1.74984,4 4,4 l 48.99997,1.8e-4 c 2.23952,0 4,-1.77106 4,-4 m 0,0 V 66.532618 c 0,-1.69429 1.34105,-3.037 3.038,-3.037 h 27.215996" style="fill:none;stroke:#000;stroke-width:.1;stroke-linecap:butt;stroke-linejoin:miter;stroke-miterlimit:4;stroke-dasharray:none;stroke-opacity:1"/><rect id="rect1398" width="13.846" height="13.846" x="7.999" y="94.164" ry=".297" style="fill:none;fill-opacity:1;stroke:#000;stroke-width:.09890071;stroke-miterlimit:4;stroke-dasharray:none;stroke-opacity:1"/><rect style="fill:none;fill-opacity:1;stroke:#000;stroke-width:.09890071;stroke-miterlimit:4;stroke-dasharray:none;stroke-opacity:1" id="rect1400" width="13.846" height="13.846" x="26.999" y="94.164" ry=".297"/><rect id="rect1402" width="13.846" height="13.846" x="45.999" y="94.164" ry=".297" style="fill:none;fill-opacity:1;stroke:#000;stroke-width:.09890071;stroke-miterlimit:4;stroke-dasharray:none;stroke-opacity:1"/><rect style="fill:none;fill-opacity:1;stroke:#000;stroke-width:.09890071;stroke-miterlimit:4;stroke-dasharray:none;stroke-opacity:1" id="rect1404" width="13.846" height="13.846" x="7.999" y="75.164" ry=".297"/><rect id="rect1406" width="13.846" height="13.846" x="26.999" y="75.164" ry=".297" style="fill:none;fill-opacity:1;stroke:#000;stroke-width:.09890071;stroke-miterlimit:4;stroke-dasharray:none;stroke-opacity:1"/><rect style="fill:none;fill-opacity:1;stroke:#000;stroke-width:.09890071;stroke-miterlimit:4;stroke-dasharray:none;stroke-opacity:1" id="rect1408" width="13.846" height="13.846" x="45.999" y="75.164" ry=".297"/><rect style="fill:none;fill-opacity:1;stroke:#000;stroke-width:.09890071;stroke-miterlimit:4;stroke-dasharray:none;stroke-opacity:1" id="rect1410" width="13.846" height="13.846" x="7.999" y="56.164" ry=".297"/><rect id="rect1412" width="13.846" height="13.846" x="26.999" y="56.164" ry=".297" style="fill:none;fill-opacity:1;stroke:#000;stroke-width:.09890071;stroke-miterlimit:4;stroke-dasharray:none;stroke-opacity:1"/><rect style="fill:none;fill-opacity:1;stroke:#000;stroke-width:.09890071;stroke-miterlimit:4;stroke-dasharray:none;stroke-opacity:1" id="rect1414" width="13.846" height="13.846" x="45.999" y="56.164" ry=".297"/><rect id="rect1416" width="13.846" height="13.846" x="7.999" y="37.164" ry=".297" style="fill:none;fill-opacity:1;stroke:#000;stroke-width:.09890071;stroke-miterlimit:4;stroke-dasharray:none;stroke-opacity:1"/><rect style="fill:none;fill-opacity:1;stroke:#000;stroke-width:.09890071;stroke-miterlimit:4;stroke-dasharray:none;stroke-opacity:1" id="rect1418" width="13.846" height="13.846" x="26.999" y="37.164" ry=".297"/><rect id="rect1420" width="13.846" height="13.846" x="45.999" y="37.164" ry=".297" style="fill:none;fill-opacity:1;stroke:#000;stroke-width:.09890071;stroke-miterlimit:4;stroke-dasharray:none;stroke-opacity:1"/><rect style="fill:none;fill-opacity:1;stroke:#000;stroke-width:.09890071;stroke-miterlimit:4;stroke-dasharray:none;stroke-opacity:1" id="rect1422" width="13.846" height="13.846" x="7.999" y="18.164" ry=".297"/><rect id="rect1424" width="13.846" height="13.846" x="26.999" y="18.164" ry=".297" style="fill:none;fill-opacity:1;stroke:#000;stroke-width:.09890071;stroke-miterlimit:4;stroke-dasharray:none;stroke-opacity:1"/><rect style="fill:none;fill-opacity:1;stroke:#000;stroke-width:.09890071;stroke-miterlimit:4;stroke-dasharray:none;stroke-opacity:1" id="rect1426" width="13.846" height="13.846" x="45.999" y="18.164" ry=".297"/><circle id="circle1430" cx="43.453" cy="53.59" r="1.1" style="fill:none;stroke:#000;stroke-width:.1;stroke-miterlimit:4;stroke-dasharray:none;stroke-opacity:1"/><circle id="circle1432" cx="24.402" cy="34.54" r="1.1" style="fill:none;stroke:#000;stroke-width:.1;stroke-miterlimit:4;stroke-dasharray:none;stroke-opacity:1"/><circle id="circle1438" cx="43.453" cy="72.557" r="1.1" style="fill:none;stroke:#000;stroke-width:.1;stroke-miterlimit:4;stroke-dasharray:none;stroke-opacity:1"/><circle id="circle1440" cx="24.402" cy="91.606" r="1.1" style="fill:none;stroke:#000;stroke-width:.1;stroke-miterlimit:4;stroke-dasharray:none;stroke-opacity:1"/><circle style="fill:none;stroke:#000;stroke-width:.1;stroke-miterlimit:4;stroke-dasharray:none;stroke-opacity:1" id="circle1450" cx="86.976" cy="18.041" r="1.1"/><circle id="circle1456" cx="86.976" cy="53.087" r="1.1" style="fill:none;stroke:#000;stroke-width:.1;stroke-miterlimit:4;stroke-dasharray:none;stroke-opacity:1"/><g id="g986" transform="translate(-18.67855,-45.335836)"><rect id="rect854" width="90" height="96" x="114.932" y="60.422" rx="3.787" ry="3.787" style="fill:none;stroke:#000;stroke-width:.1;stroke-miterlimit:4;stroke-dasharray:none;stroke-opacity:1"/><circle id="circle1450-7" cx="134.4" cy="79.901" r="1.1" style="display:inline;fill:none;stroke:#000;stroke-width:.1;stroke-miterlimit:4;stroke-dasharray:none;stroke-opacity:1"/><circle style="display:inline;fill:none;stroke:#000;stroke-width:.1;stroke-miterlimit:4;stroke-dasharray:none;stroke-opacity:1" id="circle965" cx="153.448" cy="98.944" r="1.1"/><circle id="circle967" cx="153.456" cy="117.908" r="1.1" style="display:inline;fill:none;stroke:#000;stroke-width:.1;stroke-miterlimit:4;stroke-dasharray:none;stroke-opacity:1"/><circle style="display:inline;fill:none;stroke:#000;stroke-width:.1;stroke-miterlimit:4;stroke-dasharray:none;stroke-opacity:1" id="circle969" cx="134.399" cy="136.953" r="1.1"/><circle id="circle971" cx="187.486" cy="144.412" r="1.1" style="display:inline;fill:none;stroke:#000;stroke-width:.1;stroke-miterlimit:4;stroke-dasharray:none;stroke-opacity:1"/><circle style="display:inline;fill:none;stroke:#000;stroke-width:.1;stroke-miterlimit:4;stroke-dasharray:none;stroke-opacity:1" id="circle973" cx="196.974" cy="98.437" r="1.1"/><circle id="circle975" cx="196.97" cy="63.384" r="1.1" style="display:inline;fill:none;stroke:#000;stroke-width:.1;stroke-miterlimit:4;stroke-dasharray:none;stroke-opacity:1"/></g></g></svg>